<?xml version="1.0" encoding="UTF-8"?>
<svg id="Layer_1" xmlns="http://www.w3.org/2000/svg" xmlns:xlink="http://www.w3.org/1999/xlink" viewBox="0 0 24 21.31">
  <defs>
    <style>
      .cls-1 {
        fill: #fff;
        stroke: #a7a9ac;
        stroke-linecap: round;
        stroke-linejoin: bevel;
      }

      .cls-1, .cls-2 {
        fill-rule: evenodd;
      }

      .cls-3 {
        fill: none;
      }

      .cls-2 {
        fill: #005ce6;
      }

      .cls-4 {
        clip-path: url(#clippath);
      }
    </style>
    <clipPath id="clippath">
      <rect class="cls-3" x="3.74" y="1.99" width="17.03" height="17.03"/>
    </clipPath>
  </defs>
  <path class="cls-1" d="M12.25.5c5.52,0,10,4.48,10,10s-4.48,10-10,10S2.25,16.02,2.25,10.5,6.73.5,12.25.5Z"/>
  <g class="cls-4">
    <path class="cls-2" d="M14.28,15.77H6.17v-5.57l1.01-2.86,3.04-2.11,3.04,2.11,1.01,2.86v5.57ZM7.79,11.72v3.24h4.86v-3.24h-4.86ZM18.33,15.77h-3.24V5.3c.21-.53.73-.89,1.31-.89.02,0,.05,0,.07,0h.49s.05,0,.08,0c.57,0,1.09.35,1.3.89h0v10.47Z"/>
  </g>
</svg>